<svg width="467" height="467" fill="none" xmlns="http://www.w3.org/2000/svg"><path d="M162 263.5V313l-6.5 17m0 0l-13.5-8.5m13.5 8.5s10.5 7.5 29 14 21.5 0 35.5 0 31-5.5 38.5-14 15.5-17 15.5-17l12.5-11.5m0 0v-14m0 14l16.5 20s16 14.5 25 16 47 20 47 20l31.5 12.5m-124-272c-11.335-9.183-19.275-11.712-36-12-8.982.068-12-3.828-23 0s-11.808 6.132-18.5 7l-3 11.5c-4.715 7.102-7.814 11.6-15 21.5-.977 6.755-3.041 10.184-8 16l-9.5 8.5c-5.087 5.993-7.33 9.672-7 18.5 1.367 2.749 1.637 4.639 0 9.5-3.387 5.244-5.052 6.122-8 7.5-1.137 7.372-1.796 11.18-3 17.5-.372 8.436.137 12.15 3 16l3.5 23 4.5 20 22 15 26 6c8.119 1.428 14.035 2.207 30.5 3.5 8.435 2.583 14.351 3.585 26.5 4.5 6.107-.459 9.943-1.123 19-4.5 4.196-.713 6.983-2.394 12.5-7 3.107-7.548 4.78-11.729 5.5-17.5l4-17L315 226v-18c-1.605-1.023-2.39-2.374-2.5-13.5-1.027.475-.056-7.174 0-13s2.868-5.924 2.5-12.5c-.368-6.576-5.202-8.424-6.5-25-1.578-7.427-3.486-12.713-9.5-25-3.958-7.414-4.632-11.081-16.5-21z" stroke="#fff" stroke-width="2"/><g stroke="#fff" stroke-width="2"><path d="M15.5 309.5c-3.812-5.812-3.99-11.395-2.5-23.5 2.892-9.066 3.09-14.774 17-19 5.804.982 13.181 1.024 22.5-6.5C59 250 50.95 244.118 59 235c2.794-4.746 3.996-8.729 5-20-.072-4.996 1.338-8.17 6.5-14.5 6.295-5.495 10.87-7.705 24-7.5 7.345.597 12.646-.31 25.5-5.5 6.022-2.37 8.94-5.714 13.5-14.5v-9c-1.28-5.028-1.776-8.329 3-26.5 3.017-6.115 6.003-8.737 16-10.5l16-4.5c4.561-1.627 6.504-3.679 8-11 2.579-9.479 4.593-14.912 12.5-25.5 4.124-9.757 6.066-15.475 18-20 7.013-6.237 11.17-9.293 21-10 8.173-.12 12.993.77 22 4 6.648 2.094 7.355 5.089 8.5 10.5 1.085 3.186.829 7.258 0 15.5 5.454-8.857 7.67-9.801 11-8.5 3.33 1.301 10.5 0 10.5 0 5.697-.398 8.825-.867 13-7 11.061-4.264 15.517-1.283 22.5 7 15.411 14.54 15.931 17.64 19 24.5 1.775 11.717 1.69 17.097 0 25-4.707 12.126-5.741 17.852-3 25-1.805 11.887-9 17-10 21s4.749 11.01 10 11c5.251-.01 10.5 9 10.5 9 4.17 9.528 6.758 10.634 11.5 10.5 7.197 6.204 7 2.5 3.5 13.5s0 10.361 0 17c-2.797 13.008-1.956 14.141 0 15 1.001 5.385 2.188 7.796 8 8.5 3.59 6.174 6-1 12 4.5s6 13 6 13 4 10 10.5 10 16 12.5 16 12.5 4.5 10.5 12 11.5 4.5 15.5 4.5 15.5-3.5-1.5 0 11.5 0 13 0 13"/><path d="M267.5 76s4.106-4.895 0-11.5.281 3.462-8.5-11.5-20.5-8.5-20.5-8.5c-14.448 4.51-21.412 5.417-31 3-17.43 2.524-19.841 9.03-26.5 19l-6.5 21c-8.008 10.488-13.242 14.161-24.5 15-17.994 7.5-19.921 14.995-25.5 27.5.257 15.252-4.301 18.848-16 21.5-10.717 6.159-14.172 8.767-16 12 2.296 5.407 3.236 8.545-6 17.5-13.53 12.186-21 1.5-26.5 14.5s.5 23.5-5.5 28S45 249 45 249s-7 12.5-16.5 12.5H12M187 126c-11.499 9.837-23 2.5-27.5 14s-18.5 18-16 23.5-1 27.5-6 32-6.5 28-13 28S105.5 241 96 237s-7.5 24.5-15.5 24.5S74 278 69.5 292s-41 0-41 0M134 230l3.5 11 6 8h6.5l9.5-4m153-54c10.4 17.6 24.5 23.5 24.5 32.5V246c0 10-18.5 16.5-11.5 25.5s21 9 21 9 17-9 26 0 0 32.5 10 33.5 21-4 21 8-8.5 28 0 26.5 20 21.5 20 21.5"/></g><circle cx="233.5" cy="233.5" r="231" stroke="#fff" stroke-width="5"/></svg>